<svg xmlns="http://www.w3.org/2000/svg" viewBox="0 0 70.4 55.14"><path d="M16.26 54.14c-3.93 0-7-.98-9.21-2.95-2.21-1.96-3.77-4.91-4.68-8.84-.91-3.93-1.36-8.84-1.36-14.74s.45-10.82 1.36-14.78c.91-3.95 2.47-6.92 4.68-8.88C9.26 1.99 12.33 1 16.26 1s6.99.98 9.18 2.95c2.19 1.97 3.73 4.93 4.64 8.88.91 3.96 1.36 8.88 1.36 14.78s-.45 10.81-1.36 14.74c-.91 3.93-2.46 6.88-4.64 8.84-2.19 1.97-5.25 2.95-9.18 2.95zm0-7.52c1.82 0 3.25-.58 4.31-1.73 1.05-1.15 1.83-3.11 2.32-5.86.49-2.75.74-6.56.74-11.42s-.25-8.75-.74-11.5-1.27-4.7-2.32-5.86c-1.06-1.15-2.5-1.73-4.31-1.73s-3.27.58-4.35 1.73c-1.08 1.16-1.86 3.11-2.32 5.86-.47 2.75-.7 6.58-.7 11.5s.23 8.67.7 11.42 1.24 4.71 2.32 5.86c1.08 1.16 2.53 1.73 4.35 1.73zm24.17 6.78v-2.43c0-3.54.92-6.98 2.76-10.32 1.84-3.34 4.93-7.08 9.25-11.2 1.52-1.47 2.97-2.96 4.35-4.46 1.38-1.5 2.51-2.97 3.39-4.42.88-1.45 1.35-2.84 1.4-4.16.05-2.55-.53-4.45-1.73-5.68-1.2-1.23-2.91-1.84-5.12-1.84s-3.69.76-4.72 2.28c-1.03 1.52-1.55 3.66-1.55 6.41h-7.81c0-5.11 1.3-9.09 3.91-11.94 2.6-2.85 5.99-4.27 10.17-4.27 2.85 0 5.39.59 7.63 1.77 2.24 1.18 3.99 2.9 5.27 5.16 1.28 2.26 1.87 5.04 1.77 8.33-.05 2.31-.59 4.45-1.62 6.41-1.03 1.97-2.4 3.87-4.09 5.71-1.7 1.84-3.62 3.8-5.79 5.86-2.26 2.21-4.26 4.32-6.01 6.34-1.75 2.02-2.76 3.76-3.06 5.23h19.68v7.22H40.43z" fill="#fff" stroke="#e6442b" stroke-linejoin="round" stroke-width="2"/></svg>