<svg xmlns="http://www.w3.org/2000/svg" viewBox="0 0 72.02 55.14"><path d="M16.26 54.14c-3.93 0-7-.98-9.21-2.95-2.21-1.96-3.77-4.91-4.68-8.84-.91-3.93-1.36-8.84-1.36-14.74s.45-10.82 1.36-14.78c.91-3.95 2.47-6.92 4.68-8.88C9.26 1.99 12.33 1 16.26 1s6.99.98 9.18 2.95c2.19 1.97 3.73 4.93 4.64 8.88.91 3.96 1.36 8.88 1.36 14.78s-.45 10.81-1.36 14.74c-.91 3.93-2.46 6.88-4.64 8.84-2.19 1.97-5.25 2.95-9.18 2.95zm0-7.52c1.82 0 3.25-.58 4.31-1.73 1.05-1.15 1.83-3.11 2.32-5.86.49-2.75.74-6.56.74-11.42s-.25-8.75-.74-11.5-1.27-4.7-2.32-5.86c-1.06-1.15-2.5-1.73-4.31-1.73s-3.27.58-4.35 1.73c-1.08 1.16-1.86 3.11-2.32 5.86-.47 2.75-.7 6.58-.7 11.5s.23 8.67.7 11.42 1.24 4.71 2.32 5.86c1.08 1.15 2.53 1.73 4.35 1.73zm38.47 7.22c-3.1 0-5.97-.76-8.62-2.28-2.65-1.52-4.74-3.56-6.27-6.12l6.63-4.2c.98 1.52 2.15 2.75 3.5 3.69 1.35.93 2.94 1.4 4.75 1.4 2.75 0 4.83-.82 6.23-2.47 1.4-1.65 2.1-3.94 2.1-6.89 0-3.19-.6-5.52-1.81-6.96-1.2-1.45-2.89-2.17-5.05-2.17-1.38 0-2.6.29-3.68.88-1.08.59-1.87 1.47-2.36 2.65h-7.3V1.81h26.24v7.22H50.74v13.56c.83-.59 1.74-1.07 2.73-1.44.98-.37 1.96-.55 2.95-.55 2.75 0 5.22.61 7.41 1.84 2.19 1.23 3.93 3.05 5.23 5.45 1.3 2.41 1.95 5.43 1.95 9.07 0 5.36-1.5 9.51-4.5 12.46-3 2.95-6.93 4.42-11.79 4.42z" fill="#fff" stroke="#e6442b" stroke-linejoin="round" stroke-width="2"/></svg>