<svg xmlns="http://www.w3.org/2000/svg" viewBox="0 0 74.96 55.14"><path d="M16.26 54.14c-3.93 0-7-.98-9.21-2.95-2.21-1.96-3.77-4.91-4.68-8.84-.91-3.93-1.36-8.84-1.36-14.74s.45-10.82 1.36-14.78c.91-3.95 2.47-6.92 4.68-8.88C9.26 1.99 12.33 1 16.26 1s6.99.98 9.18 2.95c2.19 1.97 3.73 4.93 4.64 8.88.91 3.96 1.36 8.88 1.36 14.78s-.45 10.81-1.36 14.74c-.91 3.93-2.46 6.88-4.64 8.84-2.19 1.97-5.25 2.95-9.18 2.95zm0-7.52c1.82 0 3.25-.58 4.31-1.73 1.05-1.15 1.83-3.11 2.32-5.86.49-2.75.74-6.56.74-11.42s-.25-8.75-.74-11.5-1.27-4.7-2.32-5.86c-1.06-1.15-2.5-1.73-4.31-1.73s-3.27.58-4.35 1.73c-1.08 1.16-1.86 3.11-2.32 5.86-.47 2.75-.7 6.58-.7 11.5s.23 8.67.7 11.42 1.24 4.71 2.32 5.86c1.08 1.15 2.53 1.73 4.35 1.73zM59.3 53.4V42.12H39.11v-6.04L59.37 1.59h7.37V35.2h7.22v6.93h-7.22v11.28H59.3zM46.99 35.2H59.3V14.12L46.99 35.2z" fill="#fff" stroke="#e6442b" stroke-linejoin="round" stroke-width="2"/></svg>