<svg xmlns="http://www.w3.org/2000/svg" viewBox="0 0 112.49 108.76"><path d="M19.1 84.62c-2.58-.41-4.35-2.82-3.94-5.4.4-2.58 2.81-4.35 5.39-3.95 2.58.41 4.35 2.82 3.95 5.4a4.74 4.74 0 01-4.67 4c-.24 0-.49-.02-.73-.05zm2.97-15.47a4.713 4.713 0 01-2.92-6.01 4.72 4.72 0 016-2.93 4.73 4.73 0 012.93 6.01 4.736 4.736 0 01-4.47 3.19c-.51 0-1.03-.09-1.54-.26zm5.66-14.69a4.724 4.724 0 01-1.81-6.43 4.725 4.725 0 016.43-1.82 4.716 4.716 0 011.81 6.43 4.707 4.707 0 01-4.12 2.42c-.79 0-1.58-.19-2.31-.6zM35.91 41c-2.02-1.66-2.32-4.64-.66-6.65a4.718 4.718 0 016.65-.66 4.725 4.725 0 01-3 8.38A4.67 4.67 0 0135.91 41zm10.4-11.83a4.732 4.732 0 01.52-6.66c1.98-1.7 4.96-1.46 6.66.52a4.722 4.722 0 01-.51 6.66c-.89.76-1.99 1.14-3.07 1.14-1.34 0-2.66-.56-3.6-1.66zm12.32-9.81a4.73 4.73 0 011.68-6.47 4.726 4.726 0 016.47 1.67c1.32 2.26.57 5.15-1.68 6.47-.75.45-1.57.66-2.39.66-1.62 0-3.2-.84-4.08-2.33zm13.86-7.5c-.91-2.45.34-5.17 2.79-6.07 2.45-.91 5.17.34 6.07 2.79.91 2.45-.34 5.17-2.79 6.07-.54.2-1.1.3-1.64.3-1.92 0-3.73-1.19-4.43-3.09zm14.95-4.93a4.735 4.735 0 013.83-5.48c2.57-.46 5.02 1.26 5.48 3.83.46 2.57-1.26 5.02-3.83 5.48a4.73 4.73 0 01-5.48-3.83zm15.6-2.2c0-2.61 2.11-4.73 4.72-4.73s4.73 2.12 4.73 4.73c0 2.61-2.12 4.73-4.73 4.73-2.61 0-4.72-2.12-4.72-4.73zM19.76 108.76c-.9 0-1.79-.34-2.47-1.02L1.03 91.47a3.495 3.495 0 010-4.95 3.495 3.495 0 014.95 0l13.79 13.79 13.79-13.79a3.495 3.495 0 014.95 0 3.495 3.495 0 010 4.95l-16.26 16.26a3.49 3.49 0 01-2.47 1.02z" fill="#e6442b"/></svg>