<svg xmlns="http://www.w3.org/2000/svg" viewBox="0 0 112.49 108.75"><path d="M88 80.66a4.732 4.732 0 013.94-5.4c2.58-.4 5 1.37 5.4 3.95.4 2.58-1.37 4.99-3.95 5.4-.24.03-.49.05-.73.05-2.29 0-4.3-1.67-4.66-4zm-3.58-14.45c-.86-2.46.45-5.16 2.92-6.01 2.47-.85 5.16.46 6.01 2.93.85 2.47-.46 5.16-2.93 6.01-.51.17-1.03.26-1.54.26-1.96 0-3.79-1.23-4.46-3.19zm-6.09-13.58a4.724 4.724 0 011.81-6.43 4.74 4.74 0 016.44 1.82 4.73 4.73 0 01-1.82 6.43c-.73.41-1.52.6-2.3.6a4.71 4.71 0 01-4.13-2.42zm-8.4-12.3c-1.66-2.02-1.36-5 .66-6.65 2.01-1.66 4.99-1.36 6.65.66a4.728 4.728 0 01-.66 6.65 4.74 4.74 0 01-6.66-.66zM59.52 29.68a4.714 4.714 0 01-.52-6.66c1.7-1.98 4.68-2.22 6.66-.52 1.98 1.7 2.22 4.68.52 6.67a4.727 4.727 0 01-3.59 1.65c-1.09 0-2.19-.38-3.07-1.14zm-12.13-8.66c-2.25-1.32-3-4.21-1.67-6.46 1.32-2.26 4.21-3 6.46-1.68a4.73 4.73 0 011.68 6.47 4.741 4.741 0 01-4.08 2.33c-.81 0-1.64-.21-2.39-.66zm-13.46-6.38c-2.44-.9-3.7-3.62-2.79-6.07.9-2.45 3.62-3.7 6.07-2.79 2.45.9 3.7 3.62 2.8 6.07a4.74 4.74 0 01-4.44 3.09c-.54 0-1.09-.1-1.64-.3zm-14.36-3.89a4.735 4.735 0 01-3.83-5.48 4.735 4.735 0 015.48-3.83c2.57.46 4.29 2.91 3.83 5.48a4.73 4.73 0 01-4.65 3.9c-.27 0-.55-.02-.83-.07zM0 4.72C0 2.11 2.12 0 4.73 0c2.61 0 4.73 2.11 4.73 4.72S7.34 9.45 4.73 9.45C2.12 9.45 0 7.33 0 4.72zm92.73 104.03c-.9 0-1.79-.34-2.47-1.03L74 91.46a3.495 3.495 0 010-4.95 3.495 3.495 0 014.95 0l13.79 13.79 13.79-13.79a3.495 3.495 0 014.95 0 3.495 3.495 0 010 4.95l-16.26 16.26c-.68.68-1.58 1.03-2.47 1.03z" fill="#e6442b"/></svg>