<?xml version="1.0" encoding="UTF-8"?><svg id="_イヤー_2" xmlns="http://www.w3.org/2000/svg" viewBox="0 0 21.91 21.91"><defs><style>.cls-1{fill:#e6442b;}</style></defs><g id="_イヤー_1-2"><path class="cls-1" d="M6.5,0h.09c1.37,0,2.63,.72,3.32,1.9l1.03,1.75,1.03-1.75c.69-1.18,1.96-1.9,3.32-1.9h.09c2.08,0,3.77,1.69,3.77,3.77,0,.62-.15,1.16-.41,1.71h1.78c.76,0,1.37,.61,1.37,1.37v2.74c0,.76-.61,1.37-1.37,1.37H1.37c-.76,0-1.37-.61-1.37-1.37v-2.74c0-.76,.61-1.37,1.37-1.37h1.78c-.26-.55-.41-1.1-.41-1.71C2.74,1.69,4.42,0,6.5,0ZM1.37,12.32H9.58v9.58H3.42c-1.13,0-2.05-.92-2.05-2.05v-7.53ZM8.15,2.94c-.33-.55-.92-.89-1.55-.89h-.09c-.95,0-1.71,.77-1.71,1.71s.77,1.71,1.71,1.71h3.14l-1.49-2.53Zm7.25-.89h-.09c-.64,0-1.23,.34-1.55,.89l-1.49,2.53h3.14c.95,0,1.71-.77,1.71-1.71s-.77-1.71-1.71-1.71Zm-3.08,19.85V12.32h8.21v7.53c0,1.13-.92,2.05-2.05,2.05h-6.16Z"/></g></svg>