<?xml version="1.0" encoding="UTF-8"?><svg id="_イヤー_2" xmlns="http://www.w3.org/2000/svg" viewBox="0 0 16.93 17.45"><defs><style>.cls-1{fill:#fff;stroke:#fff;stroke-width:.3px;}</style></defs><g id="_イヤー_1-2"><g><path class="cls-1" d="M16.32,.15h-3.35c-.22,0-.42,.16-.45,.39l-1.2,7.53H1.74L1.12,3.13H10.17c.25,0,.46-.2,.46-.46s-.2-.46-.46-.46H.61c-.13,0-.26,.06-.34,.15-.09,.1-.13,.23-.11,.36l.73,5.85c.03,.23,.22,.4,.45,.4H11.18l-.43,2.68H1.7c-.25,0-.46,.2-.46,.46s.2,.46,.46,.46H11.14c.22,0,.42-.16,.45-.39l.56-3.52s.03-.09,.03-.14h0l1.18-7.46h2.96c.25,0,.46-.2,.46-.46s-.2-.46-.46-.46Z"/><path class="cls-1" d="M3.69,13.28c-1.11,0-2.01,.9-2.01,2.01s.9,2.01,2.01,2.01,2.01-.9,2.01-2.01-.9-2.01-2.01-2.01Zm0,3.11c-.6,0-1.1-.49-1.1-1.1s.49-1.1,1.1-1.1,1.1,.49,1.1,1.1-.49,1.1-1.1,1.1Z"/><path class="cls-1" d="M9.12,13.28c-1.11,0-2.01,.9-2.01,2.01s.9,2.01,2.01,2.01,2.01-.9,2.01-2.01-.9-2.01-2.01-2.01Zm0,3.11c-.6,0-1.1-.49-1.1-1.1s.49-1.1,1.1-1.1,1.1,.49,1.1,1.1-.49,1.1-1.1,1.1Z"/></g></g></svg>