<svg id="_イヤー_2" xmlns="http://www.w3.org/2000/svg" viewBox="0 0 149.09 62.08"><defs><style>.cls-1{stroke-width:2.57px}.cls-1,.cls-2{fill:#e6442b}.cls-1{stroke:#fff;stroke-miterlimit:10}.cls-4{fill:#fff}</style></defs><g id="_イヤー_1-2"><ellipse class="cls-2" cx="74.54" cy="39.38" rx="74.54" ry="22.71"/><ellipse class="cls-4" cx="75.88" cy="37.66" rx="60.93" ry="15.1"/><ellipse class="cls-2" cx="75.56" cy="35.73" rx="59.64" ry="15.1"/><path class="cls-1" d="M129.81 23.52c0 9.94-2.36 17.99-35.99 17.99-38.34 0-39.95-8.06-39.95-17.99S73.95 5.53 93.82 5.53s35.99 8.06 35.99 17.99z"/><path class="cls-1" d="M81.02 4.89C89.38.23 93.88.87 104.96 2.48c11.09 1.61 14.3 5.14 16.39 7.55s3.86 7.07 0 8.84c-3.86 1.77-9.32 3.05-8.19 7.71 1.12 4.66-4.66 11.25-9 4.5S95 20.96 86.97 18.71c-8.03-2.25-14.3-9.16-5.94-13.82z"/><path d="M52.56 15.51c0-2.13-1.63-3.86-3.64-3.86-.91 0-1.73.35-2.37.93-.31-1.8-1.79-3.17-3.58-3.17-1.05 0-1.99.47-2.65 1.22-.63-.54-1.43-.87-2.3-.87s-1.73.35-2.37.93c-.31-1.8-1.79-3.17-3.58-3.17s-3.29 1.38-3.58 3.19c-1.44.51-2.48 1.95-2.48 3.65 0 .46.08.9.22 1.31-1.65.37-2.89 1.92-2.89 3.77 0 2.13 1.63 3.86 3.64 3.86.63 0 1.21-.17 1.73-.46.05.1.09.19.15.28-1.2.63-2.03 1.94-2.03 3.45 0 2.13 1.63 3.86 3.64 3.86.63 0 1.21-.17 1.73-.46.6 1.25 1.83 2.12 3.25 2.12 2.01 0 3.64-1.73 3.64-3.86 0-.1 0-.19-.01-.29.84-.25 1.56-.82 2.03-1.57.52.31 1.12.48 1.76.48 2.01 0 3.64-1.73 3.64-3.86 0-.1 0-.19-.01-.29 1.42-.43 2.49-1.75 2.62-3.36 1.92-.1 3.46-1.78 3.46-3.85z" stroke-width="1.93" stroke="#fff" stroke-miterlimit="10" fill="#e6442b"/><path class="cls-1" d="M28.22 34.7c-.77-2.61.73-5.38 3.34-6.15l17.01-5.03c2.61-.77 5.38.73 6.15 3.34.77 2.61-.73 5.38-3.34 6.15l-17.01 5.03c-2.61.77-5.38-.73-6.15-3.34z"/><path class="cls-1" d="M34.32 40.48c-.77-2.61.73-5.38 3.34-6.15l17.01-5.03c2.61-.77 5.38.73 6.15 3.34.77 2.61-.73 5.38-3.34 6.15l-17.01 5.03c-2.61.77-5.38-.73-6.15-3.34z"/><ellipse class="cls-4" cx="107.37" cy="25.88" rx="1.55" ry="2.57"/><path class="cls-4" d="M107.25 20.94c.84.96 2.12.22 2.79-.83 4.18-6.55 8.37-3.61 7.73-6.95-.69-3.58-5.24-.87-6.54.5s-3.35 3.72-3.38 4.7c0 0-1.44 1.61-.6 2.57z"/></g></svg>