<svg xmlns="http://www.w3.org/2000/svg" viewBox="0 0 164.62 74"><g fill-rule="evenodd"><path d="M39.93 47.98v.91c0 5.52 0 11.04.01 16.56 0 .56-.16.68-.7.68-2.77-.03-5.54-.02-8.31 0-.47 0-.64-.09-.64-.61.02-10.63.02-21.25 0-31.87 0-.5.15-.63.63-.63 2.79.02 5.59.02 8.38 0 .44 0 .67.19.89.52 3.83 5.64 7.66 11.27 11.49 16.91.16.23.33.46.53.74.16-.27.09-.51.09-.73 0-5.54.01-11.09-.01-16.63 0-.61.11-.83.78-.82 2.73.04 5.46.03 8.18 0 .56 0 .7.16.7.71-.02 10.58-.01 21.16 0 31.74 0 .51-.12.67-.65.66-2.79-.03-5.59-.03-8.38 0-.48 0-.74-.16-1-.55-3.8-5.6-7.62-11.19-11.44-16.79-.15-.22-.3-.43-.57-.82zm69.06 9.23c1.56-4.84 3.09-9.51 4.56-14.19.21-.68.51-.86 1.19-.85 2.26.04 4.53.03 6.8 0 .45 0 .64.14.79.57 1.51 4.56 3.05 9.12 4.58 13.67.07.2.08.42.32.63.39-1.51.77-2.97 1.14-4.42.84-3.29 1.69-6.59 2.51-9.89.1-.41.26-.57.7-.57 2.57.02 5.15.02 7.72 0 .44 0 .53.09.37.52-2.82 7.64-5.64 15.28-8.44 22.92-.15.4-.35.52-.76.51-2.35-.02-4.71-.02-7.06 0-.44 0-.6-.15-.73-.54-1.44-4.33-2.9-8.66-4.36-12.98-.08-.24-.1-.52-.35-.75l-2.02 6.21c-.82 2.5-1.64 5.01-2.43 7.52-.13.4-.29.55-.72.55-2.38-.02-4.75-.02-7.13 0-.37 0-.58-.07-.73-.47-2.82-7.64-5.65-15.27-8.5-22.9-.18-.48-.08-.59.42-.58 2.57.02 5.15.02 7.72 0 .45 0 .6.17.7.57 1.18 4.66 2.37 9.31 3.56 13.97.03.1.06.2.16.49zm-14.81 2.71c-1.91 3.37-4.52 5.62-8.3 6.3-3.3.59-6.61.67-9.9 0-4.41-.9-7.86-4.5-8.71-9.04-.59-3.15-.39-6.24 1.11-9.12 1.65-3.17 4.32-5.13 7.77-5.92 3.55-.82 7.14-.77 10.62.32 4.5 1.41 6.91 4.68 7.68 9.25.22 1.3.26 2.62.3 3.94.02.71-.22.81-.85.81-5.59-.02-11.18-.01-16.76-.01-.83 0-.82 0-.66.85.36 1.94 1.37 3.35 3.35 3.82 1.92.46 3.62-.04 4.94-1.56.25-.28.47-.47.88-.43 2.82.28 5.64.53 8.55.8zM29.2 70.62c.03.22-.15.27-.26.35-1.35.95-2.71 1.88-4.04 2.85-.42.31-.51 0-.68-.24-3.17-4.52-6.33-9.04-9.5-13.56C9.89 53.13 5.07 46.23.22 39.34c-.36-.5-.26-.7.2-1.01 1.24-.83 2.47-1.69 3.68-2.57.36-.26.53-.28.81.12 8.01 11.46 16.03 22.91 24.05 34.37.09.13.17.25.25.37zM140 74c-.15-.1-.28-.18-.41-.27-1.24-.87-2.47-1.76-3.74-2.6-.45-.3-.49-.5-.17-.95 3.76-5.34 7.5-10.69 11.25-16.04 4.24-6.05 8.48-12.1 12.7-18.16.31-.45.5-.51.95-.17 1.2.89 2.43 1.74 3.67 2.57.43.29.46.49.16.92-6.28 8.94-12.54 17.89-18.81 26.85-1.74 2.49-3.48 4.97-5.22 7.45-.1.15-.17.35-.38.4zM59.79 21.94c-.66-5.09-4.53-10.16-11.3-11.06C54.87 10.14 59.01 5.52 59.8.01c.44 6.35 5.17 10.38 10.38 10.86-6.14 1.19-9.58 4.88-10.4 11.08zM116.3 5.47c.58 6.83 5.52 10.5 10.38 10.93-6.14 1.2-9.59 4.88-10.38 11.06-1.09-6.17-5.13-10.11-11.48-11.05 3.05-.33 5.57-1.41 7.67-3.4 2.11-2.01 3.34-4.48 3.81-7.53zM36.33 27.73c-.42-2.15-1.36-4-2.91-5.5-1.54-1.49-3.41-2.34-5.51-2.7 5.15-.82 7.79-4.56 8.41-8.21.7 4.6 3.22 7.34 7.81 8.21-4.53.98-7.08 3.72-7.8 8.2zm46.98 4.65c-.92-4.62-3.73-7.42-8.52-8.38 4.74-.86 7.53-3.58 8.51-8.15.61 4.51 3.14 7.25 7.75 8.18-4.63 1.04-7.15 3.87-7.74 8.35zm52.95-.53c-.75-3.09-2.59-4.89-5.74-5.58 3.15-.65 5.02-2.42 5.73-5.52.24 1.45.7 2.68 1.67 3.69.97 1.01 2.16 1.55 3.64 1.84-3.06.67-4.75 2.51-5.3 5.57z" fill="#e6442b"/><path d="M80.85 52.01h-4.03c-.19 0-.44.1-.46-.28-.09-1.78 1.4-3.99 3.16-4.45 2.53-.66 5.06.22 5.68 3.67.19 1.06.18 1.07-.92 1.07h-3.43z" fill="#fff"/></g></svg>