<svg id="_イヤー_2" xmlns="http://www.w3.org/2000/svg" viewBox="0 0 162.65 72.16"><defs><style>.cls-1{fill:#e6442b}</style></defs><g id="_イヤー_1-2"><path class="cls-1" d="M125.46 42.38c0 12.95-11.89 14.14-30.2 13.5-16.67-.58-30.2-.54-30.2-13.5S78.58 8.96 95.26 8.96s30.2 20.46 30.2 33.42z"/><path class="cls-1" d="M111.96 6.72s26.45-3 37.38 3.11c6.18 3.45 18.74 23.56 10.71 33.2s-40.38 12.85-40.38 12.85 12.53-4.82 7.39-21.85C121.38 15.21 102 7.68 102 7.68l9.96-.96zM55.73 5.65C52.79.8 46.04-1.44 40.88.99c-2.52 1.18-5 2.43-7.46 3.71l-1.33 9.81-1.3-8.43c-1.87 1.01-3.71 2.05-5.54 3.11l-1.4 10.3-1.34-8.69c-1.85 1.12-3.69 2.26-5.51 3.44l-1.39 10.24-1.31-8.46c-3.38 2.26-6.7 4.61-9.94 7.08-4.53 3.43-5.68 10.45-2.74 15.3 2.94 4.86 8.89 5.79 13.43 2.34a201.45 201.45 0 0136.52-22.1c5.16-2.43 7.1-8.13 4.16-12.99zm4.71 24.21c-2.94-4.85-9.68-7.09-14.84-4.67-2.52 1.18-5 2.43-7.46 3.71l-1.33 9.81-1.3-8.43c-1.87 1.01-3.71 2.05-5.54 3.11l-1.4 10.3L27.23 35c-1.85 1.12-3.69 2.26-5.51 3.44l-1.39 10.24-1.31-8.46c-3.38 2.26-6.7 4.61-9.94 7.08-4.54 3.45-5.69 10.46-2.75 15.31 2.94 4.86 8.89 5.79 13.43 2.34a201.45 201.45 0 0136.52-22.1c5.16-2.43 7.1-8.13 4.16-12.99z"/><ellipse class="cls-1" cx="82.51" cy="65.88" rx="28.76" ry="6.28"/><path class="cls-1" d="M53.75 59.2h57.51v7H53.75z"/><path d="M82.51 49.83c-16.5 0-29.88.19-29.88 8.8 0 4.86 13.38 7.7 29.88 7.7s29.88-2.84 29.88-7.7c0-6.88-13.38-8.8-29.88-8.8z" fill="#fff"/><ellipse class="cls-1" cx="82.51" cy="57.86" rx="28.76" ry="6.28"/></g></svg>