<?xml version="1.0" encoding="UTF-8"?><svg id="_イヤー_2" xmlns="http://www.w3.org/2000/svg" viewBox="0 0 201.34 89.32"><defs><style>.cls-1{fill:#e6442b;}.cls-2{fill:#fff;}</style></defs><g id="_イヤー_1-2"><g><path class="cls-1" d="M155.3,52.46c0,16.04-14.72,17.5-37.39,16.71-20.64-.72-37.39-.67-37.39-16.71S97.26,11.1,117.91,11.1s37.39,25.33,37.39,41.37Z"/><path class="cls-1" d="M138.59,8.31s32.75-3.71,46.27,3.84c7.65,4.27,23.2,29.17,13.26,41.1-9.94,11.93-49.98,15.91-49.98,15.91,0,0,15.51-5.97,9.15-27.05-7.03-23.3-31.02-32.61-31.02-32.61l12.33-1.19Z"/><path class="cls-1" d="M68.98,6.99C65.35,.99,57-1.78,50.61,1.22c-3.12,1.46-6.19,3-9.24,4.59l-1.65,12.14-1.61-10.43c-2.31,1.24-4.59,2.53-6.86,3.85l-1.73,12.75-1.66-10.76c-2.3,1.38-4.57,2.8-6.82,4.25l-1.72,12.68-1.62-10.48c-4.18,2.8-8.29,5.71-12.3,8.76C-.22,32.85-1.63,41.53,2,47.54c3.64,6.01,11.01,7.16,16.63,2.9,14.06-10.69,29.21-19.86,45.2-27.36,6.39-3,8.78-10.06,5.15-16.08Z"/><path class="cls-1" d="M74.81,36.96c-3.64-6-11.99-8.78-18.37-5.77-3.12,1.46-6.19,3-9.24,4.59l-1.65,12.14-1.61-10.43c-2.31,1.24-4.59,2.53-6.86,3.85l-1.73,12.75-1.66-10.76c-2.3,1.38-4.57,2.8-6.82,4.25l-1.72,12.68-1.62-10.48c-4.18,2.8-8.29,5.71-12.3,8.76-5.62,4.27-7.04,12.95-3.4,18.95,3.64,6.01,11.01,7.16,16.63,2.9,14.06-10.69,29.21-19.86,45.2-27.36,6.39-3,8.78-10.06,5.15-16.08Z"/><g><ellipse class="cls-1" cx="102.13" cy="81.55" rx="35.6" ry="7.77"/><rect class="cls-1" x="66.54" y="73.28" width="71.2" height="8.66"/><path class="cls-2" d="M102.13,61.68c-20.43,0-36.99,.24-36.99,10.9,0,6.02,16.56,9.53,36.99,9.53s36.99-3.51,36.99-9.53c0-8.51-16.56-10.9-36.99-10.9Z"/><ellipse class="cls-1" cx="102.13" cy="71.63" rx="35.6" ry="7.77"/></g></g></g></svg>