<?xml version="1.0" encoding="UTF-8"?><svg id="_イヤー_2" xmlns="http://www.w3.org/2000/svg" viewBox="0 0 112.49 108.76"><defs><style>.cls-1{fill:#e6442b;}</style></defs><g id="_イヤー_1-2"><g><path class="cls-1" d="M19.1,84.62c-2.58-.41-4.35-2.82-3.94-5.4h0c.4-2.58,2.81-4.35,5.39-3.95h0c2.58,.41,4.35,2.82,3.95,5.4h0c-.37,2.33-2.38,4-4.67,4h0c-.24,0-.49-.02-.73-.05Zm2.97-15.47c-2.47-.85-3.78-3.54-2.92-6.01h0c.85-2.47,3.54-3.78,6-2.93h0c2.47,.86,3.78,3.54,2.93,6.01h0c-.68,1.96-2.51,3.19-4.47,3.19h0c-.51,0-1.03-.09-1.54-.26Zm5.66-14.69c-2.27-1.28-3.09-4.15-1.81-6.43h0c1.27-2.28,4.15-3.09,6.43-1.82h0c2.28,1.28,3.09,4.15,1.81,6.43h0c-.86,1.55-2.47,2.42-4.12,2.42h0c-.79,0-1.58-.19-2.31-.6Zm8.18-13.46c-2.02-1.66-2.32-4.64-.66-6.65h0c1.65-2.02,4.63-2.32,6.65-.66h0c2.02,1.65,2.31,4.63,.66,6.65h0c-.94,1.14-2.29,1.73-3.66,1.73h0c-1.06,0-2.12-.35-2.99-1.07Zm10.4-11.83c-1.69-1.98-1.46-4.96,.52-6.66h0c1.98-1.7,4.96-1.46,6.66,.52h0c1.7,1.98,1.47,4.96-.51,6.66h0c-.89,.76-1.99,1.14-3.07,1.14h0c-1.34,0-2.66-.56-3.6-1.66Zm12.32-9.81c-1.32-2.25-.57-5.15,1.68-6.47h0c2.25-1.33,5.15-.57,6.47,1.67h0c1.32,2.26,.57,5.15-1.68,6.47h0c-.75,.45-1.57,.66-2.39,.66h0c-1.62,0-3.2-.84-4.08-2.33Zm13.86-7.5c-.91-2.45,.34-5.17,2.79-6.07h0c2.45-.91,5.17,.34,6.07,2.79h0c.91,2.45-.34,5.17-2.79,6.07h0c-.54,.2-1.1,.3-1.64,.3h0c-1.92,0-3.73-1.19-4.43-3.09Zm14.95-4.93c-.45-2.57,1.26-5.02,3.83-5.48h0c2.57-.46,5.02,1.26,5.48,3.83h0c.46,2.57-1.26,5.02-3.83,5.48h0c-.28,.04-.55,.07-.83,.07h0c-2.25,0-4.24-1.61-4.65-3.9Zm15.6-2.2c0-2.61,2.11-4.73,4.72-4.73h0c2.61,0,4.73,2.12,4.73,4.73h0c0,2.61-2.12,4.73-4.73,4.73h0c-2.61,0-4.72-2.12-4.72-4.73Z"/><path class="cls-1" d="M19.76,108.76c-.9,0-1.79-.34-2.47-1.02L1.03,91.47c-1.37-1.37-1.37-3.58,0-4.95,1.37-1.37,3.58-1.37,4.95,0l13.79,13.79,13.79-13.79c1.37-1.37,3.58-1.37,4.95,0,1.37,1.37,1.37,3.58,0,4.95l-16.26,16.26c-.68,.68-1.58,1.02-2.47,1.02Z"/></g></g></svg>