<?xml version="1.0" encoding="UTF-8"?><svg id="_イヤー_2" xmlns="http://www.w3.org/2000/svg" viewBox="0 0 112.49 108.75"><defs><style>.cls-1{fill:#e6442b;}</style></defs><g id="_イヤー_1-2"><g><path class="cls-1" d="M88,80.66h0c-.4-2.58,1.36-4.99,3.94-5.4h0c2.58-.4,5,1.37,5.4,3.95h0c.4,2.58-1.37,4.99-3.95,5.4h0c-.24,.03-.49,.05-.73,.05h0c-2.29,0-4.3-1.67-4.66-4Zm-3.58-14.45c-.86-2.46,.45-5.16,2.92-6.01h0c2.47-.85,5.16,.46,6.01,2.93h0c.85,2.47-.46,5.16-2.93,6.01h0c-.51,.17-1.03,.26-1.54,.26h0c-1.96,0-3.79-1.23-4.46-3.19Zm-6.09-13.58c-1.28-2.28-.46-5.15,1.81-6.43h0c2.28-1.27,5.16-.46,6.44,1.82h0c1.27,2.27,.46,5.15-1.82,6.43h0c-.73,.41-1.52,.6-2.3,.6h0c-1.66,0-3.27-.87-4.13-2.42Zm-8.4-12.3h0c-1.66-2.02-1.36-5,.66-6.65h0c2.01-1.66,4.99-1.36,6.65,.66h0c1.65,2.02,1.36,4.99-.66,6.65h0c-.88,.72-1.94,1.07-3,1.07h0c-1.36,0-2.72-.59-3.66-1.73Zm-10.41-10.65h0c-1.99-1.7-2.22-4.68-.52-6.66h0c1.7-1.98,4.68-2.22,6.66-.52h0c1.98,1.7,2.22,4.68,.52,6.67h0c-.94,1.09-2.26,1.65-3.59,1.65h0c-1.09,0-2.19-.38-3.07-1.14Zm-12.13-8.66c-2.25-1.32-3-4.21-1.67-6.46h0c1.32-2.26,4.21-3,6.46-1.68h0c2.25,1.32,3,4.22,1.68,6.47h0c-.88,1.49-2.46,2.33-4.08,2.33h0c-.81,0-1.64-.21-2.39-.66Zm-13.46-6.38c-2.44-.9-3.7-3.62-2.79-6.07h0c.9-2.45,3.62-3.7,6.07-2.79h0c2.45,.9,3.7,3.62,2.8,6.07h0c-.71,1.91-2.52,3.09-4.44,3.09h0c-.54,0-1.09-.1-1.64-.3Zm-14.36-3.89c-2.57-.46-4.28-2.91-3.83-5.48h0c.46-2.57,2.91-4.28,5.48-3.83h0c2.57,.46,4.29,2.91,3.83,5.48h0c-.41,2.29-2.4,3.9-4.65,3.9h0c-.27,0-.55-.02-.83-.07ZM0,4.72C0,2.11,2.12,0,4.73,0h0c2.61,0,4.73,2.11,4.73,4.72h0c0,2.61-2.12,4.73-4.73,4.73h0C2.12,9.45,0,7.33,0,4.72Z"/><path class="cls-1" d="M92.73,108.75c-.9,0-1.79-.34-2.47-1.03l-16.26-16.26c-1.37-1.37-1.37-3.58,0-4.95,1.37-1.37,3.58-1.37,4.95,0l13.79,13.79,13.79-13.79c1.37-1.37,3.58-1.37,4.95,0,1.37,1.37,1.37,3.58,0,4.95l-16.26,16.26c-.68,.68-1.58,1.03-2.47,1.03Z"/></g></g></svg>