<?xml version="1.0" encoding="UTF-8"?><svg id="_イヤー_2" xmlns="http://www.w3.org/2000/svg" viewBox="0 0 71.5 55.14"><defs><style>.cls-1{fill:#fff;stroke:#e6442b;stroke-linejoin:round;stroke-width:2px;}</style></defs><g id="_イヤー_1-2"><g><path class="cls-1" d="M16.26,54.14c-3.93,0-7-.98-9.21-2.95-2.21-1.96-3.77-4.91-4.68-8.84-.91-3.93-1.36-8.84-1.36-14.74s.45-10.82,1.36-14.78c.91-3.95,2.47-6.92,4.68-8.88,2.21-1.96,5.28-2.95,9.21-2.95s6.99,.98,9.18,2.95c2.19,1.97,3.73,4.93,4.64,8.88,.91,3.96,1.36,8.88,1.36,14.78s-.45,10.81-1.36,14.74c-.91,3.93-2.46,6.88-4.64,8.84-2.19,1.97-5.25,2.95-9.18,2.95Zm0-7.52c1.82,0,3.25-.58,4.31-1.73,1.05-1.15,1.83-3.11,2.32-5.86,.49-2.75,.74-6.56,.74-11.42s-.25-8.75-.74-11.5c-.49-2.75-1.27-4.7-2.32-5.86-1.06-1.15-2.5-1.73-4.31-1.73s-3.27,.58-4.35,1.73c-1.08,1.16-1.86,3.11-2.32,5.86-.47,2.75-.7,6.58-.7,11.5s.23,8.67,.7,11.42c.47,2.75,1.24,4.71,2.32,5.86,1.08,1.15,2.53,1.73,4.35,1.73Z"/><path class="cls-1" d="M54.36,54.14c-3.49,0-6.5-.92-9.03-2.76-2.53-1.84-4.36-4.56-5.49-8.14l7.22-2.43c.25,.69,.64,1.49,1.18,2.4,.54,.91,1.3,1.71,2.29,2.4,.98,.69,2.21,1.03,3.68,1.03,2.51,0,4.5-.61,5.97-1.84,1.47-1.23,2.21-3.29,2.21-6.19,0-2.6-.74-4.69-2.21-6.26-1.47-1.57-3.59-2.36-6.34-2.36h-3.69v-7.22h3.69c2.46,0,4.27-.72,5.45-2.17,1.18-1.45,1.77-3.23,1.77-5.34,0-2.46-.7-4.19-2.1-5.2-1.4-1.01-2.99-1.51-4.75-1.51-1.28,0-2.36,.36-3.24,1.07-.88,.71-1.61,1.52-2.17,2.43-.57,.91-.97,1.71-1.22,2.4l-7.15-2.87c1.28-3.34,3.16-5.93,5.64-7.78,2.48-1.84,5.24-2.76,8.29-2.76s5.61,.58,7.85,1.73c2.23,1.16,3.98,2.76,5.23,4.83,1.25,2.06,1.88,4.5,1.88,7.3,0,2.56-.68,4.85-2.03,6.89-1.35,2.04-3.06,3.53-5.12,4.46,2.46,.93,4.46,2.53,6.01,4.79,1.55,2.26,2.32,4.89,2.32,7.89,0,4.67-1.41,8.38-4.24,11.13-2.83,2.75-6.79,4.13-11.9,4.13Z"/></g></g></svg>