<?xml version="1.0" encoding="UTF-8"?><svg id="_イヤー_2" xmlns="http://www.w3.org/2000/svg" viewBox="0 0 74.96 55.14"><defs><style>.cls-1{fill:#fff;stroke:#e6442b;stroke-linejoin:round;stroke-width:2px;}</style></defs><g id="_イヤー_1-2"><g><path class="cls-1" d="M16.26,54.14c-3.93,0-7-.98-9.21-2.95-2.21-1.96-3.77-4.91-4.68-8.84-.91-3.93-1.36-8.84-1.36-14.74s.45-10.82,1.36-14.78c.91-3.95,2.47-6.92,4.68-8.88,2.21-1.96,5.28-2.95,9.21-2.95s6.99,.98,9.18,2.95c2.19,1.97,3.73,4.93,4.64,8.88,.91,3.96,1.36,8.88,1.36,14.78s-.45,10.81-1.36,14.74c-.91,3.93-2.46,6.88-4.64,8.84-2.19,1.97-5.25,2.95-9.18,2.95Zm0-7.52c1.82,0,3.25-.58,4.31-1.73,1.05-1.15,1.83-3.11,2.32-5.86,.49-2.75,.74-6.56,.74-11.42s-.25-8.75-.74-11.5c-.49-2.75-1.27-4.7-2.32-5.86-1.06-1.15-2.5-1.73-4.31-1.73s-3.27,.58-4.35,1.73c-1.08,1.16-1.86,3.11-2.32,5.86-.47,2.75-.7,6.58-.7,11.5s.23,8.67,.7,11.42c.47,2.75,1.24,4.71,2.32,5.86,1.08,1.15,2.53,1.73,4.35,1.73Z"/><path class="cls-1" d="M59.3,53.4v-11.28h-20.19v-6.04L59.37,1.59h7.37V35.2h7.22v6.93h-7.22v11.28h-7.44Zm-12.31-18.2h12.31V14.12l-12.31,21.08Z"/></g></g></svg>