<?xml version="1.0" encoding="UTF-8"?><svg id="_イヤー_2" xmlns="http://www.w3.org/2000/svg" viewBox="0 0 56.56 39.31"><defs><style>.cls-1{fill:#e6442b;}</style></defs><g id="_イヤー_1-2"><g><path class="cls-1" d="M4.26,21.78c-.53,1.47-.91,2.65-1.38,3.8-.23,.58-.62,1.15-1.37,1.05-.69-.09-1.05-.66-1.26-1.24-.15-.43-.26-.95-.15-1.37,.8-3.01,.41-6.02-.02-9.01C-.88,8.41,7.28,3.4,12.08,3.89c5.83,.59,11.64-.2,17.41-.91,3.69-.45,7.32-1.35,11.08-.82,.64,.09,1.25,.01,1.51-.75,.62-1.84,1.91-1.57,3.18-.89,.99,.53,1.99,.73,3.11,.8,3.18,.19,5.1,2.77,7.56,4.29,1.21,.75,.56,3.52-.84,4.47-1.62,1.1-3.42,1.99-5.35,2.15-1.54,.13-2.36,.66-2.98,2.03-.94,2.05-2.1,4.01-3.61,5.7-3.97,4.44-4,9.72-3.37,15.16,.15,1.32,1.02,2.93-1.21,3.3-2.02,.33-3.04-.8-3.37-2.67-.39-2.2,.23-4.48-.61-6.65-.37,2.17-.35,4.37,0,6.53,.26,1.58,.11,2.59-1.74,2.76-2.17,.2-3.33-.54-3.33-2.51,0-3.04-.22-6.03-.83-9.03-.36-1.79-1.1-2.61-2.93-2.47-.53,.04-1.12-.04-1.6-.26-3.54-1.61-6.44,.56-9.48,1.65-1.34,.48-2.49,4.53-2.05,6.58,.21,.98,.55,1.94,.89,2.89,.43,1.2,.62,2.43-.8,2.96-1.51,.56-2.98,.27-3.73-1.39-.77-1.72-.7-3.63-1.01-5.58-.85,1.27-.48,2.46-.27,3.67,.23,1.31,.38,2.66-.8,3.68-.91,.78-1.95,.92-3.05,.51-1.01-.38-1.5-1.21-1.38-2.2,.45-3.98-.21-8.1,1.4-11.95,.37-.88,.53-1.78,.39-3.15ZM19.36,5.79c.97,1.89,.49,3.52-1.84,4.15-3.35,.9-6.61,2.35-10.03,2.72-2.42,.26-2.58,1.06-2.17,3.08,.78,3.85,1.58,7.6-.06,11.64-1.02,2.53-.56,5.67-.73,8.54-.03,.55,.07,1.23,.82,1.12,.69-.09,.7-.71,.57-1.29-.07-.3-.17-.61-.17-.92,.1-6.19,1.27-11.85,7.13-15.42,.86-.53,1.39-.56,2.29-.15,5.38,2.45,10.94,3.95,16.93,2.74,1.43-.29,2.66-.05,3.13,1.6,.82,2.9,1.96,5.72,1.62,8.87-.21,1.93-.03,1.95,.75,3.2-.1-3.19-.57-6.46,.26-9.67,.29-1.13,.21-1.97-.45-3.01-1.86-2.95-.93-5.84,1.81-8.07,2.38-1.94,5.67-2.11,7.8-4.4,.25-.27,.89-.3,1.34-.27,1.54,.09,2.89-.54,4.26-1.07,1.01-.39,2.39-1.01,1.57-2.23-.6-.91-1.82-1.87-3.4-.78-3.98,2.76-7.97,1.35-11.63-.63-1.53-.83-2.87-1.41-4.53-1.24-5.02,.53-10,1.4-15.27,1.49Z"/><path class="cls-1" d="M33.15,6.43c1.19,.15,2.58,.33,3.96,.52,.9,.12,1.68,.48,1.89,1.45,.23,1.04-.27,1.98-1.15,2.32-1.75,.67-2.99,1.78-4.01,3.31-.65,.97-1.75,1.34-2.9,.94-1.27-.45-.96-1.61-.96-2.59,0-1,.38-1.94,.23-2.99-.3-2.13,.53-2.93,2.94-2.96Z"/><path class="cls-1" d="M22.33,12.05c2.45,.02,3.89,1.94,3.82,5.08-.03,1.54-2.55,3.15-4.78,3.05-1.35-.06-2.87-2.91-2.83-5.32,.03-1.86,1.35-2.84,3.79-2.81Z"/></g></g></svg>