<?xml version="1.0" encoding="UTF-8"?><svg id="_イヤー_2" xmlns="http://www.w3.org/2000/svg" viewBox="0 0 28.79 21.15"><defs><style>.cls-1{fill:#fff;}</style></defs><g id="_イヤー_1-2"><g><path class="cls-1" d="M14.39,14.56c.79,0,1.54-.31,2.1-.87l2.95-2.94L28.75,1.43c-.14-.82-.85-1.43-1.71-1.43H1.73C.88,0,.17,.62,.03,1.43L12.29,13.69c.56,.56,1.31,.87,2.1,.87Z"/><polygon class="cls-1" points="2.66 7 .02 4.35 .02 4.37 0 4.35 0 17.15 6.4 10.75 2.66 7"/><path class="cls-1" d="M20.92,12.23h-.01l-2.94,2.93c-.96,.95-2.22,1.48-3.57,1.48s-2.62-.53-3.57-1.48l-2.94-2.94L.1,20c.24,.67,.88,1.15,1.64,1.15H27.05c.76,0,1.4-.48,1.64-1.15l-7.77-7.77h0Z"/><polygon class="cls-1" points="28.78 4.37 28.78 4.35 22.42 10.71 22.39 10.74 22.39 10.74 22.38 10.75 28.78 17.15 28.78 9.64 28.79 4.36 28.78 4.37"/></g></g></svg>