<?xml version="1.0" encoding="UTF-8"?><svg id="_イヤー_2" xmlns="http://www.w3.org/2000/svg" viewBox="0 0 15.06 21.91"><defs><style>.cls-1{fill:#e6442b;}</style></defs><g id="_イヤー_1-2"><path class="cls-1" d="M15.06,9.2v1.75c0,3.8-2.84,6.95-6.5,7.45v1.44h1.71c.78,0,1.4,.65,1.37,1.44-.02,.35-.33,.62-.68,.62H4.11c-.35,0-.67-.27-.68-.62-.04-.79,.59-1.44,1.37-1.44h1.71v-1.5c-3.77-.52-6.5-3.94-6.5-7.77v-1.38c0-.53,.46-.99,1.03-.99s1.03,.46,1.03,.99v1.53c0,2.83,2.29,5.5,5.12,5.68,3.18,.2,5.83-2.33,5.83-5.46v-1.75c0-.53,.46-.99,1.03-.99s1.03,.46,1.03,.99Zm-11.64,1.75V4.11C3.42,1.84,5.26,0,7.53,0s4.11,1.84,4.11,4.11v6.85c0,2.27-1.84,4.11-4.11,4.11s-4.11-1.84-4.11-4.11Z"/></g></svg>