<?xml version="1.0" encoding="UTF-8"?><svg id="_イヤー_2" xmlns="http://www.w3.org/2000/svg" viewBox="0 0 166.26 94.41"><defs><style>.cls-1{fill:#e6442b;}.cls-2{fill:#fff;}</style></defs><g id="_イヤー_1-2"><g><path class="cls-1" d="M4.87,41.19c.51-.51,1.12-.51,2.13,.31,1.02,.81,8.62,8.01,9.84,8.82,1.22,.81,2.33-1.32,1.73-1.93s-8.92-10.14-9.43-10.65c-.51-.51-.1-1.32,.81-1.42,.91-.1,6.49,4.66,9.53,7.5,3.05,2.84,6.7,7.31,6.6,10.86-.13,4.57-.48,4.25,3.3,7.6,4.3,3.82,19.6,18.64,24.1,23.15,3.82,3.82,5.61,6.57,4.07,8.11l-.32,.32c-1.54,1.54-4.3-.25-8.11-4.06-4.5-4.5-19.33-19.8-23.15-24.11-3.35-3.78-3.02-3.43-7.6-3.3-3.55,.1-8.02-3.55-10.86-6.6C4.66,52.75-.1,47.17,0,46.26c.1-.91,.91-1.32,1.42-.81s10.04,8.82,10.65,9.43,2.74-.51,1.93-1.73c-.81-1.22-8.01-8.82-8.82-9.84-.81-1.02-.81-1.63-.31-2.13"/><path class="cls-1" d="M76.21,84.51c1.49-1.49-.09-4.46-3.9-8.27-4.5-4.5-19.12-18.71-23.42-22.54-3.77-3.36-2.6-3.03-3.24-7.5-.56-3.91-1.21-7.31-5.67-11.38-4.03-3.68-10.87-6.18-15.27-1.57-4.6,4.4-2.1,11.25,1.57,15.27,4.07,4.46,7.47,5.12,11.38,5.67,4.47,.63,4.14-.53,7.5,3.24,3.83,4.29,18.03,18.92,22.54,23.42,3.82,3.82,6.87,5.31,8.36,3.82l.16-.16Z"/><path class="cls-1" d="M164.44,9.41c4.11-.06,.65,5.56-4.37,20.94-4.35,13.34-5.48,14.92-6.3,15.21-.82,.29-2.25,5.38-3.08,7.9-1.37,4.13-4.37,14.05-5.95,18.62-1.57,4.51-2.13,9.22-5.66,8.3-2.22-.58-1.72-4.88,.07-10.27,2.1-6.36,6.09-17.96,7.99-23.7,.61-1.83,.06-1.37-1.13-4.02-.82-1.81,4.21-15.06,7.05-20.93,2.84-5.87,8.13-12.01,11.4-12.06Z"/><circle class="cls-1" cx="98.34" cy="36.95" r="36.95"/><circle class="cls-2" cx="98.34" cy="36.95" r="27.32"/><circle class="cls-1" cx="98.34" cy="36.95" r="25.31"/></g></g></svg>