<?xml version="1.0" encoding="UTF-8"?><svg id="_イヤー_2" xmlns="http://www.w3.org/2000/svg" viewBox="0 0 191.79 79.86"><defs><style>.cls-1{stroke-width:2.48px;}.cls-1,.cls-2{stroke:#fff;stroke-miterlimit:10;}.cls-1,.cls-2,.cls-3{fill:#e6442b;}.cls-2{stroke-width:3.31px;}.cls-4{fill:#fff;}</style></defs><g id="_イヤー_1-2"><g><ellipse class="cls-3" cx="95.9" cy="50.65" rx="95.9" ry="29.21"/><ellipse class="cls-4" cx="97.62" cy="48.45" rx="78.38" ry="19.43"/><ellipse class="cls-3" cx="97.2" cy="45.97" rx="76.72" ry="19.43"/><path class="cls-2" d="M166.99,30.26c0,12.78-3.03,23.15-46.29,23.15-49.33,0-51.39-10.36-51.39-23.15S95.13,7.11,120.7,7.11s46.29,10.36,46.29,23.15Z"/><path class="cls-2" d="M104.23,6.29c10.75-5.99,16.53-5.17,30.79-3.1,14.26,2.07,18.39,6.61,21.08,9.71,2.69,3.1,4.96,9.09,0,11.37-4.96,2.27-11.99,3.93-10.54,9.92,1.45,5.99-5.99,14.47-11.57,5.79-5.58-8.68-11.78-13.02-22.11-15.91-10.33-2.89-18.39-11.78-7.65-17.77Z"/><path class="cls-1" d="M67.61,19.96c0-2.74-2.1-4.96-4.68-4.96-1.16,0-2.23,.45-3.05,1.2-.39-2.32-2.3-4.08-4.61-4.08-1.35,0-2.56,.61-3.41,1.57-.81-.7-1.84-1.12-2.96-1.12s-2.23,.45-3.05,1.2c-.39-2.32-2.3-4.08-4.61-4.08s-4.23,1.78-4.61,4.11c-1.85,.66-3.19,2.51-3.19,4.7,0,.59,.1,1.16,.28,1.69-2.12,.47-3.72,2.47-3.72,4.85,0,2.74,2.1,4.96,4.68,4.96,.81,0,1.56-.22,2.22-.59,.06,.12,.12,.24,.19,.36-1.55,.81-2.61,2.49-2.61,4.44,0,2.74,2.1,4.96,4.68,4.96,.81,0,1.56-.22,2.22-.59,.77,1.61,2.35,2.72,4.18,2.72,2.59,0,4.68-2.22,4.68-4.96,0-.12,0-.25-.02-.37,1.08-.33,2-1.05,2.61-2.02,.67,.39,1.44,.62,2.26,.62,2.59,0,4.68-2.22,4.68-4.96,0-.12,0-.25-.02-.37,1.83-.55,3.2-2.25,3.37-4.32,2.48-.13,4.45-2.29,4.45-4.95Z"/><path class="cls-2" d="M36.3,44.64c-.99-3.36,.94-6.92,4.3-7.91l21.88-6.47c3.36-.99,6.92,.94,7.91,4.3h0c.99,3.36-.94,6.92-4.3,7.91l-21.88,6.47c-3.36,.99-6.92-.94-7.91-4.3h0Z"/><path class="cls-2" d="M44.15,52.08c-.99-3.36,.94-6.92,4.3-7.91l21.88-6.47c3.36-.99,6.92,.94,7.91,4.3h0c.99,3.36-.94,6.92-4.3,7.91l-21.88,6.47c-3.36,.99-6.92-.94-7.91-4.3h0Z"/><ellipse class="cls-4" cx="138.13" cy="33.29" rx="2" ry="3.31"/><path class="cls-4" d="M137.97,26.94c1.08,1.24,2.73,.28,3.59-1.07,5.37-8.42,10.77-4.65,9.95-8.94-.88-4.61-6.74-1.13-8.41,.64-1.67,1.77-4.3,4.79-4.35,6.05,0,0-1.86,2.07-.77,3.31Z"/></g></g></svg>