<?xml version="1.0" encoding="UTF-8"?><svg id="_イヤー_2" xmlns="http://www.w3.org/2000/svg" viewBox="0 0 196.77 88.45"><defs><style>.cls-1{fill:#e6442b;}.cls-1,.cls-2{fill-rule:evenodd;}.cls-2{fill:#fff;}</style></defs><g id="_イヤー_1-2"><g><path class="cls-1" d="M47.73,57.35v1.09c0,6.6-.01,13.2,.02,19.8,0,.67-.19,.82-.83,.81-3.31-.03-6.63-.03-9.94,0-.56,0-.76-.1-.76-.72,.02-12.7,.02-25.4,0-38.1,0-.6,.18-.75,.76-.75,3.34,.02,6.68,.02,10.02,0,.53,0,.8,.23,1.07,.63,4.57,6.74,9.16,13.48,13.74,20.21,.19,.28,.39,.55,.63,.89,.19-.32,.11-.61,.11-.88,0-6.63,.02-13.25-.01-19.88,0-.73,.13-.99,.93-.98,3.26,.05,6.52,.04,9.78,0,.66,0,.83,.19,.83,.84-.02,12.65-.02,25.3,0,37.94,0,.61-.14,.8-.78,.79-3.34-.03-6.68-.03-10.02,0-.57,0-.89-.19-1.2-.65-4.54-6.7-9.11-13.38-13.67-20.07-.18-.26-.36-.52-.68-.98Z"/><path class="cls-1" d="M130.28,68.38c1.87-5.78,3.7-11.36,5.45-16.96,.26-.82,.61-1.03,1.42-1.02,2.71,.05,5.42,.04,8.12,0,.54,0,.77,.17,.94,.68,1.81,5.45,3.64,10.9,5.47,16.34,.08,.23,.1,.5,.39,.76,.47-1.81,.92-3.54,1.36-5.28,1.01-3.94,2.02-7.88,3-11.82,.12-.49,.31-.68,.84-.68,3.08,.02,6.15,.02,9.23,0,.52,0,.63,.11,.45,.62-3.37,9.13-6.74,18.26-10.09,27.4-.18,.48-.42,.62-.91,.62-2.81-.02-5.63-.03-8.44,0-.52,0-.71-.18-.87-.65-1.72-5.18-3.46-10.35-5.21-15.52-.1-.29-.12-.62-.42-.9-.81,2.49-1.62,4.96-2.42,7.42-.97,2.99-1.96,5.98-2.91,8.98-.15,.48-.35,.66-.87,.66-2.84-.03-5.68-.02-8.52,0-.44,0-.7-.09-.87-.56-3.37-9.13-6.76-18.26-10.16-27.38-.21-.57-.09-.7,.5-.7,3.08,.02,6.15,.02,9.23,0,.54,0,.71,.2,.83,.69,1.41,5.57,2.83,11.13,4.25,16.7,.03,.12,.08,.24,.19,.59Z"/><path class="cls-1" d="M112.57,71.62c-2.29,4.02-5.41,6.72-9.92,7.53-3.94,.71-7.9,.8-11.83,0-5.27-1.08-9.39-5.38-10.41-10.8-.71-3.76-.47-7.46,1.32-10.9,1.97-3.79,5.16-6.13,9.29-7.08,4.24-.98,8.53-.92,12.69,.39,5.38,1.69,8.26,5.6,9.18,11.06,.26,1.56,.31,3.13,.36,4.71,.03,.85-.26,.97-1.02,.97-6.68-.03-13.36-.02-20.04-.02-.99,0-.98,0-.79,1.01,.43,2.32,1.64,4,4,4.56,2.29,.55,4.32-.05,5.91-1.86,.29-.34,.56-.56,1.05-.51,3.37,.33,6.74,.63,10.22,.96Z"/><path class="cls-1" d="M34.91,84.42c.04,.27-.18,.32-.31,.42-1.61,1.14-3.24,2.24-4.83,3.41-.51,.37-.61,0-.81-.28-3.78-5.4-7.57-10.8-11.35-16.21C11.82,63.51,6.06,55.26,.26,47.03c-.42-.6-.32-.84,.23-1.2,1.49-.99,2.95-2.02,4.39-3.07,.43-.31,.64-.33,.97,.15,9.57,13.7,19.16,27.39,28.75,41.08,.11,.15,.2,.3,.3,.44Z"/><path class="cls-1" d="M167.35,88.45c-.18-.12-.33-.22-.49-.32-1.49-1.04-2.95-2.1-4.47-3.11-.54-.36-.59-.6-.21-1.14,4.5-6.38,8.97-12.78,13.44-19.17,5.06-7.23,10.14-14.46,15.18-21.71,.37-.53,.6-.61,1.14-.21,1.43,1.07,2.9,2.09,4.39,3.08,.52,.35,.55,.58,.19,1.09-7.51,10.69-14.99,21.39-22.48,32.09-2.08,2.97-4.16,5.94-6.24,8.91-.12,.18-.2,.42-.45,.48Z"/><path class="cls-1" d="M71.47,26.22c-.79-6.08-5.41-12.15-13.51-13.22,7.63-.89,12.58-6.41,13.52-13,.52,7.59,6.18,12.41,12.41,12.98-7.34,1.43-11.46,5.84-12.43,13.24Z"/><path class="cls-1" d="M139.02,6.54c.7,8.16,6.6,12.55,12.41,13.06-7.34,1.44-11.46,5.83-12.41,13.22-1.3-7.37-6.13-12.08-13.73-13.21,3.64-.4,6.66-1.68,9.17-4.06,2.53-2.4,4-5.35,4.56-9.01Z"/><path class="cls-1" d="M43.43,33.15c-.5-2.57-1.62-4.78-3.48-6.58-1.84-1.78-4.07-2.8-6.59-3.22,6.16-.99,9.32-5.45,10.06-9.81,.83,5.5,3.85,8.77,9.34,9.81-5.41,1.17-8.47,4.44-9.32,9.8Z"/><path class="cls-1" d="M99.58,38.7c-1.1-5.52-4.46-8.87-10.19-10.01,5.66-1.02,9-4.28,10.18-9.75,.73,5.39,3.75,8.66,9.26,9.77-5.54,1.25-8.54,4.63-9.25,9.98Z"/><path class="cls-1" d="M162.88,38.07c-.89-3.7-3.1-5.84-6.87-6.67,3.77-.78,6-2.9,6.85-6.6,.28,1.73,.84,3.21,2,4.41,1.15,1.2,2.58,1.85,4.35,2.2-3.66,.81-5.67,3.01-6.33,6.66Z"/><path class="cls-2" d="M96.64,62.17c-1.6,0-3.21,0-4.81,0-.23,0-.53,.12-.55-.34-.11-2.13,1.67-4.77,3.78-5.32,3.03-.79,6.05,.27,6.79,4.39,.23,1.27,.22,1.27-1.11,1.27-1.37,0-2.73,0-4.1,0Z"/></g></g></svg>